<?xml version="1.0" encoding="UTF-8"?>
<svg width="732px" height="287px" viewBox="0 0 732 287" version="1.1" xmlns="http://www.w3.org/2000/svg" xmlns:xlink="http://www.w3.org/1999/xlink">
    <!-- Generator: Sketch 63.1 (92452) - https://sketch.com -->
    <title>logo</title>
    <desc>Created with Sketch.</desc>
    <g id="Page-1" stroke="none" stroke-width="1" fill="none" fill-rule="evenodd">
        <g id="logo" transform="translate(-18.000000, -79.000000)" fill="#000000" stroke="#979797">
            <g id="dragon" transform="translate(377.069870, 193.218216) rotate(-8.000000) translate(-377.069870, -193.218216) translate(18.569870, 48.718216)" stroke-width="2">
                <path d="M114.844,3.648 L118.188,6.52 L106.682,6.155 C95.429,5.798 81.534,7.327 80.475,9.04 C80.183,9.513 81.869,10.747 84.222,11.783 L88.5,13.667 L83.5,14.385 C75.812,15.488 59.636,20.712 56.662,23.051 C53.25,25.735 53.203,28 56.559,28 C60.169,28 58.875,29.394 53.283,31.53 C44.055,35.054 28,45.671 28,48.249 C28,48.881 29.867,49.01 33,48.594 C38.592,47.853 39.369,48.76 35.233,51.203 C28.289,55.305 10.646,73.98 12.224,75.558 C12.479,75.813 14.628,75.337 17,74.5 C19.372,73.663 21.464,73.131 21.651,73.317 C21.837,73.504 19.58,76.68 16.635,80.376 C11.553,86.753 3,102.11 3,104.857 C3,105.739 3.853,105.538 5.75,104.21 C13.065,99.086 13.383,99.289 9.657,106.693 C5.748,114.459 2.494,124.369 1.488,131.569 L0.798,136.5 L3.972,132.75 C5.717,130.688 7.531,129 8.002,129 C8.473,129 7.988,132.037 6.923,135.75 C4.62,143.779 3.024,159.306 3.95,164.673 L4.61,168.5 L6.791,164.318 C7.99,162.018 9.374,159.887 9.867,159.582 C10.372,159.27 10.974,165.889 11.25,174.765 C11.612,186.45 12.231,192.038 13.653,196.476 L15.567,202.452 L17.931,195.976 C19.856,190.701 20.439,189.871 21.077,191.5 C21.507,192.6 21.891,194.758 21.93,196.294 C22.08,202.286 25.433,212.961 30.317,223 L35.426,233.5 L36.556,226.5 C37.404,221.246 37.888,219.999 38.497,221.5 C44.157,235.449 49.607,244.391 57.517,252.706 L63.028,258.5 L62.451,252 C61.916,245.966 61.987,245.643 63.443,247.5 C69.294,254.962 71.144,257.05 76.5,262.244 C79.8,265.444 84.525,269.271 87,270.747 C89.475,272.224 92.155,274.07 92.955,274.85 C95.009,276.851 95.595,274.568 93.76,271.718 C91.885,268.808 89.912,262.998 90.802,263.009 C91.186,263.014 94.081,265.227 97.235,267.927 C105.863,275.312 119.818,282.592 129,284.497 L132.5,285.223 L129.879,282.361 C128.438,280.788 126.413,278.157 125.379,276.516 L123.5,273.533 L126.5,275.638 C132.373,279.76 140.451,283.229 149.411,285.478 C160.646,288.298 172,289.606 172,288.08 C172,287.486 171.618,287 171.15,287 C169.958,287 161.723,280.944 162.228,280.439 C162.455,280.211 165.125,280.898 168.16,281.965 C171.195,283.032 176.563,284.373 180.089,284.945 C187.112,286.084 204.744,286.164 209.5,285.078 L212.5,284.393 L207.151,281.629 C204.208,280.109 201.993,278.674 202.228,278.439 C202.462,278.205 206.444,278.494 211.077,279.083 C219.596,280.165 227.746,279.784 238.274,277.812 C243.598,276.815 246.886,275.1 243.809,274.926 C243.089,274.885 240.7,274.017 238.5,272.996 L234.5,271.14 L242,271.674 C249.056,272.177 266.884,270.749 270.401,269.4 C272.883,268.447 272.296,267.224 269.011,266.503 C263.497,265.291 265.138,264.501 273.351,264.411 C282.165,264.315 295,262.273 295,260.966 C295,260.522 293.538,259.796 291.75,259.352 C289.303,258.744 291.464,258.392 300.5,257.929 C313.33,257.272 321.003,256.236 320.995,255.162 C320.992,254.798 319.345,253.825 317.335,253 C313.902,251.591 314.628,251.519 329.34,251.82 C340,252.038 345,251.799 345,251.07 C345,250.482 344.636,250 344.191,250 C343.746,250 342.532,249.379 341.494,248.619 C339.864,247.427 341.516,247.299 353.553,247.679 C368.173,248.141 368.016,248.203 362.337,244.208 C360.667,243.033 360.727,242.969 363,243.506 C364.375,243.831 370.225,244.328 376,244.611 C385.636,245.083 386.34,244.997 384.559,243.563 C382.164,241.634 382.743,241.628 391.5,243.483 C395.35,244.298 400.525,244.963 403,244.96 L407.5,244.956 L405,243 C401.874,240.555 402.925,240.535 410.5,242.896 C413.8,243.924 418.975,245.094 422,245.496 L427.5,246.226 L425.256,243.804 L423.011,241.383 L431.256,244.119 C435.79,245.624 441.3,247.177 443.5,247.569 L447.5,248.283 L445.5,245.972 L443.5,243.661 L445.5,244.472 C452.279,247.219 466.804,251.984 468.424,251.991 C470.195,251.999 470.155,251.791 467.924,249.377 L465.5,246.754 L469.933,248.991 C475.759,251.93 486.624,256 488.645,256 C490.022,256 490.053,255.765 488.872,254.313 C487.693,252.863 487.711,252.716 489,253.267 C507.163,261.031 511.355,262.338 509,259.5 C507.271,257.416 507.687,257.54 515.725,261.5 C522.713,264.943 526.715,265.966 525.5,264 C524.596,262.537 524.991,262.664 533.294,266.5 C542.152,270.593 542.414,270.642 540.976,267.956 C539.987,266.107 540.436,266.189 545.691,268.826 C548.886,270.428 552.581,272.075 553.901,272.485 C555.911,273.109 556.194,272.949 555.64,271.504 C555.191,270.335 555.384,269.946 556.239,270.3 C556.932,270.588 559.901,271.839 562.836,273.081 C566.825,274.768 568.361,275.034 568.918,274.133 C569.478,273.227 570.845,273.433 574.415,274.963 C579.661,277.212 581.436,277.515 580.5,276 C579.651,274.626 580.454,274.73 586.269,276.75 C589.962,278.033 591.415,278.184 591.714,277.316 C592.021,276.428 593.139,276.49 596.187,277.566 C601.119,279.306 602.346,279.368 601.395,277.83 C600.884,277.004 601.234,276.894 602.586,277.456 C603.639,277.893 609.068,278.365 614.65,278.505 C620.233,278.644 625.345,279.095 626.012,279.507 C626.678,279.919 627.522,279.773 627.887,279.183 C628.323,278.477 629.828,278.397 632.275,278.949 C634.663,279.488 636,279.428 636,278.783 C636,278.17 637.405,278.041 639.598,278.452 C642.111,278.924 642.991,278.795 642.515,278.024 C642.052,277.276 642.64,277.123 644.339,277.549 C647.556,278.356 664.782,275.072 687,269.416 C709.749,263.625 717,261.204 717,259.399 C717,258.426 716.274,258.125 714.75,258.466 C713.512,258.744 707.489,260.098 701.365,261.476 C676.539,267.06 642.684,269.76 619,268.045 C585.805,265.641 562.347,259.908 515.5,242.748 C453.519,220.046 430.327,214.5 392.41,213.314 C358.497,212.253 333.689,215.846 277.881,229.904 C222.079,243.96 208.379,246.311 182.5,246.267 C151.179,246.215 119.261,239.153 99.064,227.808 C62.685,207.374 40.747,166.141 45.963,128 C49.49,102.208 58.637,82.982 74.986,67 C89.975,52.347 107.81,44.619 129.741,43.274 C169.272,40.849 201.92,63.414 213.985,101.5 C215.515,106.329 216.359,112.067 216.705,120 C217.317,133.986 215.756,141.693 209.821,154 C206.544,160.796 204.096,164.115 197.611,170.555 C178.258,189.774 152.353,195.364 131.608,184.797 C125.499,181.685 118.078,174.091 114.721,167.516 C112.187,162.554 111.575,160.011 111.231,153 C110.847,145.167 111.037,144.077 113.657,139.108 C117.783,131.282 122.607,127.728 129.813,127.207 C134.944,126.836 135.952,127.089 138.764,129.455 C142.401,132.516 143.813,137.612 141.975,141.046 C140.985,142.896 141.014,143.203 142.134,142.748 C147.381,140.614 147.112,140.431 145.492,145.022 C143.229,151.436 143.55,159.037 146.253,163.048 C149.474,167.827 153.988,170.185 159.195,169.81 L163.5,169.5 L159.5,167.5 C154.007,164.754 153.831,161.877 158.559,152.18 C160.601,147.993 162.549,142.302 162.888,139.534 L163.506,134.5 L166.252,139.177 C167.763,141.749 170.193,144.793 171.653,145.942 C173.989,147.779 174.171,148.328 173.175,150.515 C172.107,152.859 172.212,153 175.021,153 C178.528,153 178.746,154.265 176.011,158.75 L174.029,162 L176.792,162 C178.312,162 180.555,161.299 181.777,160.443 C184.68,158.41 184.596,159.843 181.549,164.332 C180.202,166.318 179.521,168.204 180.036,168.522 C181.976,169.721 188.09,167.033 192.957,162.842 C198.552,158.024 199.355,155.013 196.146,150.885 C195.127,149.573 193.711,145.383 193,141.573 C192.288,137.763 190.446,132.249 188.905,129.32 C186.247,124.266 186.179,123.816 187.571,120.484 C190.258,114.053 186.705,110.3 172.997,105.091 C164.784,101.97 160.321,98.355 157.458,92.504 C153.82,85.069 155.468,80.162 162.163,78.491 C164.136,77.999 165.368,78.368 166.913,79.913 L169,82 L169,79.089 C169,74.522 164.134,71 157.823,71 C153.471,71 152.358,71.442 149.49,74.31 C145.427,78.373 143.527,84.629 144.874,89.506 C145.753,92.688 145.681,92.9 144.025,92.013 C141.208,90.506 136.907,84.95 134.861,80.175 C132.397,74.428 132.437,66.435 134.95,62.314 C137.367,58.351 139.953,56.934 146.429,56.029 L151.5,55.319 L147.529,53.554 C139.612,50.034 129.477,53.299 124.372,61.015 C121.17,65.853 120.261,73.946 122.273,79.716 C123.671,83.728 123.654,83.885 121.912,82.953 C119.747,81.794 115.921,76.852 113.525,72.12 C111.837,68.786 111.805,63.485 113.45,59.739 C114.982,56.248 111.133,59.084 108.077,63.697 C105.006,68.334 103.346,75.201 104.401,78.901 C106.126,84.949 106.666,84.5 97.665,84.5 C90.221,84.5 88.909,84.794 85.089,87.323 C80.342,90.464 77.385,95.912 76.357,103.409 C75.653,108.55 76.881,109.459 79.052,105.403 C82.723,98.543 90.02,96.02 94.175,100.175 L96.35,102.35 L92.688,103.619 C81.221,107.588 70.447,121.1 68.365,134.121 L67.734,138.066 L71.267,134.533 C75.078,130.722 77.706,129.824 76.482,132.75 C72.128,143.159 69.664,162.431 71.719,170 L72.669,173.5 L76.062,167 L79.455,160.5 L80.093,170.629 C80.788,181.654 83.821,193.363 86.959,197.13 L88.933,199.5 L88.967,196.25 C89.009,192.128 90.072,192.128 92.419,196.25 C98.092,206.215 112.64,222 116.151,222 C116.64,222 116.1,220.156 114.951,217.903 C113.801,215.65 113.03,213.637 113.237,213.43 C113.444,213.222 115.291,214.193 117.34,215.585 C123.807,219.979 141.823,226.944 146.839,226.988 C147.678,226.996 147.195,225.832 145.548,223.874 C144.101,222.155 143.095,220.572 143.312,220.355 C143.529,220.138 146.585,220.62 150.103,221.426 C158.555,223.361 172.743,224.325 176.5,223.218 L179.5,222.335 L176,220.478 L172.5,218.621 L182,217.327 C187.225,216.614 194.65,215.053 198.5,213.857 L205.5,211.682 L202.25,210.696 C198.276,209.491 198.11,208.438 201.75,207.533 C205.991,206.477 220.202,199.558 223,197.186 L225.5,195.067 L221.584,195.033 L217.668,195 L223.533,190.892 C231.542,185.282 238.74,179.121 239.451,177.268 C239.935,176.007 239.411,175.834 236.52,176.303 C234.584,176.617 233,176.619 233,176.307 C233,175.995 235.07,173.607 237.6,170.999 C242.918,165.517 252,152.523 252,150.397 C252,149.165 251.537,149.188 248.907,150.548 C247.206,151.428 245.639,151.972 245.425,151.758 C245.21,151.544 246.57,148.473 248.446,144.934 C251.936,138.351 257,124.468 257,121.485 C257,120.141 256.401,120.327 253.874,122.452 C252.155,123.899 250.636,124.951 250.499,124.791 C250.361,124.631 250.847,121.125 251.577,117 C253.309,107.222 254.261,94.397 253.446,91.829 C252.848,89.946 252.669,90.016 250.982,92.79 C247.745,98.112 247,97.635 247,90.238 C247,84.033 243.945,66.338 242.458,63.933 C241.497,62.378 240.312,63.714 239.536,67.229 L238.813,70.5 L237.785,67.5 C235.389,60.509 230.475,50.119 227.146,45 L223.568,39.5 L223.034,42.871 L222.5,46.242 L217.801,39.371 C215.216,35.592 210.334,29.8 206.951,26.5 C200.869,20.566 200.809,20.536 201.48,23.75 C201.853,25.538 201.855,27 201.483,27 C201.111,27 197.972,24.413 194.508,21.25 C188.632,15.887 180.057,10.057 175.556,8.367 C173.716,7.676 173.729,7.825 175.806,11.187 C178.783,16.002 178.572,16.573 174.75,14.057 C165.206,7.774 145.96,-0.293 144.352,1.315 C143.982,1.685 144.498,2.893 145.5,4 C146.502,5.107 147.12,6.213 146.875,6.458 C146.63,6.703 142.17,5.772 136.965,4.388 C131.759,3.004 123.9,1.625 119.5,1.324 L111.5,0.776 L114.844,3.648" id="Shape"></path>
            </g>
            <path d="M363.927391,230.76 C367.147391,230.76 370.052391,230.41 372.642391,229.71 C375.232391,229.01 377.717391,227.995 380.097391,226.665 C382.477391,225.335 384.857391,223.655 387.237391,221.625 C389.617391,219.595 392.137391,217.25 394.797391,214.59 L394.797391,214.59 L394.797391,230.55 L428.607391,222.99 C428.607391,222.29 428.572391,221.555 428.502391,220.785 C428.432391,220.015 428.397391,219.28 428.397391,218.58 C425.177391,218.58 422.657391,218.44 420.837391,218.16 C419.017391,217.88 417.652391,217.39 416.742391,216.69 C415.832391,215.99 415.272391,214.94 415.062391,213.54 C414.852391,212.14 414.747391,210.25 414.747391,207.87 L414.747391,207.87 L414.747391,147.39 L377.997391,147.39 L377.997391,152.01 C381.917391,152.43 384.997391,152.85 387.237391,153.27 C389.477391,153.69 391.157391,154.215 392.277391,154.845 C393.397391,155.475 394.097391,156.175 394.377391,156.945 C394.657391,157.715 394.797391,158.73 394.797391,159.99 L394.797391,159.99 L394.797391,209.34 C391.577391,212.28 388.357391,214.415 385.137391,215.745 C381.917391,217.075 378.347391,217.74 374.427391,217.74 C369.387391,217.74 365.712391,216.34 363.402391,213.54 C361.092391,210.74 359.937391,205.98 359.937391,199.26 L359.937391,199.26 L359.937391,147.39 L326.547391,147.39 L326.547391,151.59 C329.487391,152.15 331.867391,152.64 333.687391,153.06 C335.507391,153.48 336.872391,154.005 337.782391,154.635 C338.692391,155.265 339.322391,155.965 339.672391,156.735 C340.022391,157.505 340.197391,158.52 340.197391,159.78 L340.197391,159.78 L340.197391,202.41 C340.197391,210.95 342.157391,217.81 346.077391,222.99 C349.997391,228.17 355.947391,230.76 363.927391,230.76 Z M473.31913,228.24 C477.23913,227.96 481.43913,227.75 485.91913,227.61 C490.39913,227.47 494.94913,227.4 499.56913,227.4 L499.56913,227.4 L503.55913,227.4 C507.89913,227.4 512.16913,227.435 516.36913,227.505 C520.56913,227.575 524.34913,227.75 527.70913,228.03 L527.70913,228.03 L527.70913,224.67 L516.99913,222.57 C513.21913,221.59 510.69913,220.575 509.43913,219.525 C508.17913,218.475 507.54913,216.2 507.54913,212.7 L507.54913,212.7 L507.54913,183.3 C507.40913,182.32 507.40913,181.27 507.54913,180.15 C507.68913,179.03 507.82913,177.77 507.96913,176.37 C508.10913,174.69 508.49413,172.905 509.12413,171.015 C509.75413,169.125 510.55913,167.41 511.53913,165.87 C512.51913,164.33 513.56913,163.035 514.68913,161.985 C515.80913,160.935 516.99913,160.41 518.25913,160.41 C519.09913,160.41 520.00913,160.795 520.98913,161.565 C521.96913,162.335 522.98413,163.21 524.03413,164.19 C525.08413,165.17 526.23913,166.045 527.49913,166.815 C528.75913,167.585 530.22913,167.97 531.90913,167.97 C535.12913,167.97 537.61413,166.885 539.36413,164.715 C541.11413,162.545 541.98913,159.57 541.98913,155.79 C541.98913,151.73 540.83413,148.685 538.52413,146.655 C536.21413,144.625 533.30913,143.61 529.80913,143.61 C527.98913,143.61 525.99413,144.03 523.82413,144.87 C521.65413,145.71 519.37913,147.39 516.99913,149.91 C514.61913,152.43 512.72913,154.705 511.32913,156.735 C509.92913,158.765 508.66913,161.04 507.54913,163.56 L507.54913,163.56 L506.70913,138.78 L502.92913,138.78 C499.70913,144.1 495.43913,148.3 490.11913,151.38 C484.79913,154.46 479.40913,156.77 473.94913,158.31 L473.94913,158.31 L473.73913,161.88 L478.14913,162.72 C482.34913,163.42 485.00913,164.435 486.12913,165.765 C487.24913,167.095 487.80913,169.16 487.80913,171.96 L487.80913,171.96 L487.80913,212.28 C487.80913,215.92 487.42413,218.405 486.65413,219.735 C485.88413,221.065 484.09913,222.15 481.29913,222.99 L481.29913,222.99 L473.31913,224.88 L473.31913,228.24 Z M665.66087,230.13 C669.02087,230.13 671.82087,229.43 674.06087,228.03 C676.30087,226.63 678.19087,225.02 679.73087,223.2 C681.41087,221.24 682.81087,218.93 683.93087,216.27 L683.93087,216.27 L682.46087,214.17 C681.90087,214.73 681.34087,215.22 680.78087,215.64 C680.22087,215.92 679.59087,216.235 678.89087,216.585 C678.19087,216.935 677.28087,217.11 676.16087,217.11 C671.40087,217.39 669.02087,214.73 669.02087,209.13 C669.02087,198.21 668.98587,187.395 668.91587,176.685 C668.84587,165.975 668.81087,155.16 668.81087,144.24 L668.81087,144.24 L666.92087,143.61 L654.11087,150.54 C652.29087,149.56 650.26087,148.72 648.02087,148.02 C646.06087,147.32 643.75087,146.69 641.09087,146.13 C638.43087,145.57 635.42087,145.29 632.06087,145.29 C626.60087,145.29 621.31587,146.27 616.20587,148.23 C611.09587,150.19 606.61587,153.13 602.76587,157.05 C598.91587,160.97 595.80087,165.765 593.42087,171.435 C591.04087,177.105 589.85087,183.65 589.85087,191.07 C589.85087,196.53 590.51587,201.64 591.84587,206.4 C593.17587,211.16 595.20587,215.29 597.93587,218.79 C600.66587,222.29 604.13087,225.055 608.33087,227.085 C612.53087,229.115 617.50087,230.13 623.24087,230.13 C627.30087,230.13 630.83587,229.465 633.84587,228.135 C636.85587,226.805 639.44587,225.055 641.61587,222.885 C643.78587,220.715 645.57087,218.195 646.97087,215.325 C648.37087,212.455 649.49087,209.55 650.33087,206.61 L650.33087,206.61 L650.33087,212.07 C650.33087,217.39 651.52087,221.73 653.90087,225.09 C656.28087,228.45 660.20087,230.13 665.66087,230.13 Z M629.96087,218.58 C626.60087,218.58 623.62587,217.705 621.03587,215.955 C618.44587,214.205 616.27587,211.86 614.52587,208.92 C612.77587,205.98 611.44587,202.515 610.53587,198.525 C609.62587,194.535 609.17087,190.3 609.17087,185.82 C609.17087,179.8 609.87087,174.69 611.27087,170.49 C612.67087,166.29 614.49087,162.93 616.73087,160.41 C618.97087,157.89 621.42087,156.07 624.08087,154.95 C626.74087,153.83 629.26087,153.27 631.64087,153.27 C635.56087,153.27 638.71087,154.11 641.09087,155.79 C643.47087,157.47 645.36087,159.675 646.76087,162.405 C648.16087,165.135 649.10587,168.25 649.59587,171.75 C650.08587,175.25 650.33087,178.89 650.33087,182.67 L650.33087,182.67 L650.33087,184.98 C650.33087,189.6 649.84087,193.94 648.86087,198 C647.88087,202.06 646.51587,205.595 644.76587,208.605 C643.01587,211.615 640.88087,214.03 638.36087,215.85 C635.84087,217.67 633.04087,218.58 629.96087,218.58 Z" id="ura" stroke-width="3" fill-rule="nonzero"></path>
        </g>
    </g>
</svg>